<svg xmlns="http://www.w3.org/2000/svg" xmlns:xlink="http://www.w3.org/1999/xlink" width="500" zoomAndPan="magnify" viewBox="0 0 375 374.999991" height="500" preserveAspectRatio="xMidYMid meet" version="1.0"><defs><g/><clipPath id="dc36559883"><path d="M 112.5 136.226562 L 262.5 136.226562 L 262.5 187.226562 L 112.5 187.226562 Z M 112.5 136.226562 " clip-rule="nonzero"/></clipPath></defs><path fill="#0fdfbc" d="M 271.566406 185.328125 C 268.164062 186.992188 264.335938 187.105469 260.628906 186.734375 C 256.792969 186.351562 253.003906 185.644531 249.15625 185.347656 C 245.203125 185.039062 241.195312 185.015625 237.269531 185.660156 C 233.648438 186.257812 230.21875 187.453125 227.046875 189.308594 C 224.230469 190.953125 221.574219 192.863281 218.765625 194.527344 C 216.007812 196.167969 213.050781 197.667969 209.851562 198.214844 C 206.628906 198.765625 203.519531 198.175781 200.671875 196.585938 C 197.714844 194.933594 195.160156 192.59375 192.050781 191.207031 C 188.582031 189.664062 185.160156 190.398438 181.820312 191.894531 C 178.429688 193.417969 175.230469 195.371094 171.558594 196.148438 C 167.695312 196.964844 163.671875 196.636719 159.871094 195.671875 C 151.863281 193.636719 145.0625 188.816406 137.765625 185.160156 C 136.070312 184.316406 134.328125 183.433594 132.519531 182.867188 C 131.097656 182.421875 129.613281 182.171875 128.136719 182.015625 C 124.714844 181.65625 121.261719 181.714844 117.828125 181.742188 C 114.554688 181.765625 111.261719 181.832031 108.007812 181.460938 C 104.742188 181.082031 101.699219 179.652344 99.472656 177.195312 C 94.714844 171.9375 95.308594 163.742188 100.476562 158.996094 C 106.109375 153.839844 114.339844 153.925781 121.460938 154.304688 C 125.609375 154.527344 129.75 154.714844 133.867188 154.03125 C 137.5625 153.421875 141.152344 152.273438 144.519531 150.632812 C 147.890625 148.996094 151.019531 146.867188 153.773438 144.328125 C 156.675781 141.65625 159.089844 138.503906 161.6875 135.542969 C 166.351562 130.226562 172.570312 124.921875 180.136719 125.40625 C 187.417969 125.875 191.253906 132.132812 194.382812 137.917969 C 197.359375 143.433594 201.84375 150.714844 209.21875 149.128906 C 212.652344 148.390625 215.625 146.234375 218.644531 144.5625 C 221.5625 142.949219 224.601562 141.847656 227.953125 141.679688 C 234.351562 141.355469 240.835938 144.230469 244.667969 149.402344 C 246.613281 152.023438 247.921875 155.066406 249.976562 157.609375 C 251.003906 158.886719 252.261719 159.984375 253.765625 160.667969 C 255.5 161.453125 257.433594 161.617188 259.316406 161.632812 C 262.992188 161.664062 266.792969 161.148438 270.324219 162.449219 C 273.328125 163.558594 275.875 165.890625 277.285156 168.765625 C 280.277344 174.84375 277.488281 182.246094 271.566406 185.328125 Z M 271.566406 185.328125 " fill-opacity="1" fill-rule="nonzero"/><g clip-path="url(#dc36559883)"><path fill="#0c3143" d="M 129.683594 159.007812 C 129.289062 156.730469 128.910156 154.550781 128.507812 152.246094 C 127.539062 153.300781 126.644531 154.273438 125.765625 155.230469 C 126.09375 155.949219 128.382812 158.152344 129.683594 159.007812 Z M 141.59375 141.3125 C 140.882812 139.949219 139.675781 138.710938 138.5 138.03125 C 135.460938 136.28125 132.359375 137.699219 131.125 139.730469 C 134.699219 139.59375 138.136719 140.027344 141.59375 141.3125 Z M 141.988281 142.199219 C 141.730469 142.0625 141.644531 142.003906 141.550781 141.96875 C 138.367188 140.789062 135.078125 140.128906 131.625 140.199219 C 130.910156 140.214844 130.492188 140.421875 130.199219 141.058594 C 129.414062 142.753906 129.078125 144.53125 128.949219 146.34375 C 128.859375 147.644531 128.847656 148.953125 129.09375 150.382812 C 129.382812 150.109375 129.585938 149.917969 129.789062 149.726562 C 130.917969 148.660156 132.007812 147.5625 133.183594 146.542969 C 135.640625 144.40625 138.535156 142.988281 141.988281 142.199219 Z M 125.066406 156.054688 C 123.246094 158.542969 122.53125 161.183594 123.207031 164.082031 C 123.5 165.335938 124.089844 166.464844 125.203125 167.308594 C 126.023438 167.921875 126.945312 168.246094 128.011719 168.199219 C 129.105469 168.152344 129.882812 167.402344 129.90625 166.398438 C 129.921875 165.644531 129.910156 164.878906 130.042969 164.140625 C 130.226562 163.128906 130.167969 162.132812 130.03125 161.128906 C 129.957031 160.589844 129.769531 160.148438 129.289062 159.765625 C 128.359375 159.023438 127.496094 158.207031 126.609375 157.417969 C 126.117188 156.984375 125.625 156.550781 125.066406 156.054688 Z M 160.078125 162.300781 C 160.238281 162.128906 160.359375 162.03125 160.441406 161.910156 C 161.265625 160.660156 161.722656 159.300781 161.832031 157.84375 C 162.039062 155.089844 161.285156 152.550781 159.785156 150.183594 C 158.886719 148.761719 157.898438 147.386719 156.371094 146.460938 C 154.953125 145.601562 153.515625 144.765625 152.035156 144.007812 C 150.367188 143.15625 148.554688 142.652344 146.640625 142.53125 C 146.035156 142.492188 145.417969 142.402344 144.773438 142.628906 C 153.132812 147.058594 158.15625 153.621094 160.078125 162.300781 Z M 157.5625 164.640625 C 156.988281 163.78125 156.460938 162.960938 155.90625 162.160156 C 154.242188 159.742188 152.195312 157.667969 149.460938 156.234375 C 148.21875 155.582031 146.90625 155.113281 145.394531 154.839844 C 145.625 158.691406 145.976562 162.464844 145.726562 166.296875 C 149.894531 166.792969 153.851562 166.738281 157.5625 164.640625 Z M 132.007812 160.84375 C 135.835938 163.46875 140.042969 165.230469 144.796875 166.128906 C 145.027344 162.246094 144.773438 158.492188 144.480469 154.761719 C 139.765625 153.625 133.546875 156.648438 132.007812 160.84375 Z M 124.652344 155.597656 C 123.589844 154.464844 122.503906 153.476562 121.273438 152.621094 C 120.460938 152.054688 119.589844 151.589844 118.578125 151.371094 C 116.8125 150.992188 115.535156 151.625 114.871094 153.191406 C 114.34375 154.433594 114.351562 155.726562 114.628906 156.980469 C 115.667969 161.714844 118.433594 165.445312 122.679688 168.234375 C 123.863281 169.011719 125.21875 169.535156 126.71875 169.605469 C 127.320312 169.632812 127.929688 169.617188 128.394531 169.253906 C 127.796875 169.171875 127.195312 169.148438 126.628906 169 C 124.679688 168.492188 123.488281 167.238281 122.796875 165.539062 C 122.035156 163.65625 122.136719 161.730469 122.570312 159.804688 C 122.917969 158.28125 123.644531 156.90625 124.652344 155.597656 Z M 158.445312 163.941406 C 159.101562 163.628906 159.234375 163.222656 159.125 162.601562 C 158.726562 160.347656 158.015625 158.1875 157.03125 156.101562 C 154.292969 150.308594 149.765625 146.03125 143.828125 142.953125 C 143.65625 142.863281 143.449219 142.820312 143.066406 142.691406 C 143.898438 144.605469 144.386719 146.429688 144.652344 148.300781 C 144.914062 150.160156 145.121094 152.03125 145.351562 153.882812 C 145.601562 153.949219 145.78125 154 145.96875 154.039062 C 148.28125 154.527344 150.347656 155.476562 152.191406 156.839844 C 153.703125 157.953125 154.949219 159.296875 156.066406 160.734375 C 156.875 161.777344 157.640625 162.851562 158.445312 163.941406 Z M 131.195312 160.179688 C 133.984375 155.285156 138.484375 153.363281 144.292969 153.742188 C 144.613281 151.703125 143.234375 144.144531 142.320312 142.933594 C 139.890625 143.492188 137.605469 144.355469 135.582031 145.757812 C 133.289062 147.34375 131.433594 149.34375 129.484375 151.25 C 129.167969 151.558594 129.191406 151.890625 129.25 152.238281 C 129.652344 154.597656 130.070312 156.960938 130.472656 159.324219 C 130.539062 159.699219 130.707031 159.988281 131.195312 160.179688 Z M 144.675781 167.003906 C 142.304688 166.535156 140.035156 165.890625 137.855469 164.988281 C 135.660156 164.082031 133.636719 162.902344 131.636719 161.605469 C 131.261719 162.472656 131.074219 163.246094 131.082031 164.066406 C 131.089844 164.824219 131.03125 165.578125 131.019531 166.335938 C 131.011719 166.960938 130.941406 167.601562 131.054688 168.210938 C 131.890625 172.65625 134.273438 176.203125 138.386719 178.722656 C 138.5625 178.828125 138.765625 178.898438 138.9375 178.976562 C 141.902344 176.703125 144.300781 171.828125 144.675781 167.003906 Z M 145.652344 167.164062 C 145.054688 171.777344 143.683594 176.066406 140.027344 179.503906 C 140.234375 179.605469 140.347656 179.671875 140.46875 179.722656 C 142.234375 180.410156 144.078125 180.777344 145.992188 180.703125 C 149.578125 180.5625 152.628906 179.269531 155.070312 176.84375 C 157.480469 174.449219 158.714844 171.554688 159.195312 168.359375 C 159.242188 168.039062 159.398438 167.660156 159.277344 167.402344 C 158.945312 166.699219 158.585938 165.996094 158.019531 165.398438 C 156.121094 166.464844 154.128906 167.042969 152.007812 167.296875 C 149.902344 167.550781 147.808594 167.40625 145.652344 167.164062 Z M 130.15625 168.738281 C 129 170.054688 127.582031 170.363281 125.996094 170.109375 C 124.933594 169.9375 123.972656 169.515625 123.058594 168.980469 C 120.367188 167.398438 118.289062 165.289062 116.695312 162.765625 C 115.308594 160.570312 114.28125 158.257812 114.199219 155.671875 C 114.171875 154.8125 114.242188 153.972656 114.546875 153.144531 C 115.222656 151.320312 117.089844 150.441406 118.871094 150.902344 C 119.445312 151.050781 120.015625 151.246094 120.546875 151.496094 C 121.8125 152.078125 122.835938 152.960938 123.859375 153.839844 C 124.210938 154.144531 124.566406 154.445312 124.917969 154.738281 C 125.871094 153.75 126.730469 152.796875 127.664062 151.914062 C 128.234375 151.382812 128.4375 150.851562 128.347656 150.097656 C 128.125 148.214844 128.199219 146.324219 128.507812 144.445312 C 128.742188 143.039062 129.191406 141.699219 129.894531 140.292969 C 128.910156 140.472656 128.023438 140.597656 127.15625 140.800781 C 121.792969 142.046875 117.828125 144.90625 115.417969 149.511719 C 113.9375 152.335938 113.210938 155.328125 113.050781 158.460938 C 112.792969 163.554688 114.007812 168.328125 116.699219 172.761719 C 118.773438 176.179688 121.613281 178.9375 125.492188 180.683594 C 127.890625 181.761719 130.410156 182.242188 133.074219 181.808594 C 134.886719 181.515625 136.523438 180.855469 138.035156 179.769531 C 133.78125 177.089844 131.289062 173.394531 130.15625 168.738281 Z M 240.6875 165.171875 C 241.121094 164.734375 241.101562 164.273438 241.082031 163.824219 C 241.027344 162.589844 240.046875 161.371094 238.828125 161 C 237.632812 160.636719 236.359375 161.046875 235.582031 162.070312 C 234.777344 163.132812 234.546875 164.347656 234.660156 165.605469 C 234.898438 168.210938 236.121094 170.355469 238.460938 171.867188 C 241.511719 173.835938 245.414062 173.070312 247.4375 170.175781 C 248.558594 168.570312 248.96875 166.792969 248.941406 164.914062 C 248.882812 161.152344 247.335938 158 244.28125 155.5 C 242.671875 154.183594 240.839844 153.277344 238.660156 153.007812 C 236.285156 152.714844 234.125 153.21875 232.195312 154.480469 C 229.625 156.167969 228.085938 158.527344 227.347656 161.300781 C 226.074219 166.082031 226.667969 170.664062 229.683594 174.785156 C 232.792969 179.03125 237.265625 180.898438 242.792969 180.304688 C 248.421875 179.699219 252.015625 176.609375 254.050781 171.894531 C 255.132812 169.390625 255.335938 166.75 255.128906 164.078125 C 254.894531 161.027344 254.144531 158.097656 252.742188 155.324219 C 251.503906 152.867188 249.886719 150.660156 247.570312 148.945312 C 244.558594 146.714844 241.105469 145.605469 237.230469 145.59375 C 232.140625 145.582031 228.125 147.5625 225.035156 151.199219 C 222.664062 153.992188 221.257812 157.207031 220.394531 160.632812 C 219.425781 164.496094 219.261719 168.382812 220.332031 172.25 C 221.515625 176.523438 223.894531 180.089844 227.902344 182.636719 C 230.386719 184.214844 233.160156 185.121094 236.125 185.550781 C 239.851562 186.09375 243.570312 186.023438 247.246094 185.222656 C 253.859375 183.785156 257.957031 179.890625 259.972656 174.027344 C 260.769531 171.703125 261.140625 169.316406 261.195312 166.878906 C 261.273438 163.289062 260.855469 159.765625 259.414062 156.410156 C 256.480469 149.597656 251.128906 145.035156 243.675781 142.605469 C 236.308594 140.207031 229.257812 141.15625 222.550781 144.691406 C 218.363281 146.894531 214.921875 149.886719 212.0625 153.417969 C 209.933594 156.046875 207.964844 158.785156 205.972656 161.503906 C 203.757812 164.519531 201.445312 167.464844 198.691406 170.085938 C 195.445312 173.175781 191.5625 175.351562 187.117188 176.660156 C 183.90625 177.609375 180.625 178.117188 177.242188 178.046875 C 170.835938 177.910156 165.714844 175.492188 161.851562 170.804688 C 161.328125 170.171875 160.835938 169.511719 160.355469 168.898438 C 159.910156 170.257812 159.566406 171.632812 159.015625 172.9375 C 157.726562 175.992188 155.605469 178.460938 152.46875 180.082031 C 148.328125 182.222656 144.0625 182.320312 139.75 180.550781 C 139.238281 180.339844 138.90625 180.332031 138.425781 180.644531 C 134.644531 183.109375 130.554688 183.40625 126.3125 181.855469 C 122.433594 180.441406 119.503906 177.941406 117.25 174.753906 C 114.898438 171.425781 113.53125 167.761719 112.894531 163.847656 C 112.605469 162.066406 112.492188 160.277344 112.609375 158.492188 C 112.847656 154.933594 113.753906 151.53125 115.628906 148.386719 C 118.191406 144.085938 122.175781 141.5 127.296875 140.328125 C 128.042969 140.15625 128.800781 140.03125 129.558594 139.933594 C 130 139.878906 130.289062 139.722656 130.542969 139.375 C 131.324219 138.308594 132.316406 137.4375 133.660156 137 C 136.011719 136.234375 138.082031 136.78125 139.917969 138.238281 C 140.953125 139.058594 141.703125 140.082031 142.335938 141.183594 C 142.75 141.90625 142.878906 141.972656 143.757812 141.855469 C 147 141.417969 150.070312 142.011719 152.90625 143.40625 C 157.234375 145.535156 160.289062 148.75 161.890625 153.054688 C 162.78125 155.445312 163.011719 157.875 162.179688 160.335938 C 161.847656 161.332031 161.363281 162.265625 160.667969 163.089844 C 160.363281 163.453125 160.25 163.796875 160.308594 164.265625 C 160.398438 165.015625 160.347656 165.777344 160.390625 166.53125 C 160.40625 166.800781 160.453125 167.097656 160.601562 167.316406 C 162.296875 169.8125 164.195312 172.144531 166.808594 173.917969 C 169.179688 175.53125 171.839844 176.515625 174.75 176.800781 C 183.53125 177.65625 191.140625 175.246094 197.59375 169.703125 C 200.015625 167.621094 201.996094 165.207031 203.878906 162.71875 C 205.789062 160.191406 207.632812 157.625 209.527344 155.085938 C 212.074219 151.675781 215.027344 148.597656 218.535156 146 C 222.324219 143.191406 226.59375 141.351562 231.414062 140.601562 C 243.042969 138.789062 255.03125 145 259.773438 154.542969 C 261.121094 157.253906 261.871094 160.101562 262.175781 163.0625 C 262.5 166.179688 262.355469 169.265625 261.65625 172.320312 C 260.957031 175.34375 259.699219 178.152344 257.585938 180.582031 C 255.140625 183.398438 251.988281 185.234375 248.199219 186.125 C 242.441406 187.484375 236.722656 187.445312 231.136719 185.453125 C 225.828125 183.554688 222.230469 180.039062 220.140625 175.203125 C 218.585938 171.613281 218.1875 167.882812 218.632812 164.058594 C 219.097656 159.992188 220.339844 156.152344 222.582031 152.613281 C 224.332031 149.855469 226.625 147.578125 229.75 146.109375 C 233.398438 144.402344 237.246094 144.117188 241.203125 144.945312 C 246.347656 146.023438 250.125 148.800781 252.746094 152.949219 C 254.714844 156.066406 255.832031 159.445312 256.253906 163.027344 C 256.617188 166.132812 256.398438 169.179688 255.242188 172.132812 C 253.539062 176.480469 250.371094 179.570312 245.535156 180.925781 C 239.789062 182.53125 234.683594 181.285156 230.398438 177.414062 C 227.972656 175.222656 226.667969 172.453125 225.996094 169.433594 C 225.152344 165.648438 225.464844 161.953125 227.226562 158.410156 C 228.179688 156.496094 229.539062 154.867188 231.433594 153.652344 C 234.820312 151.46875 238.402344 151.261719 242.097656 152.886719 C 245.679688 154.46875 247.96875 157.117188 249.289062 160.515625 C 250.34375 163.238281 250.464844 165.984375 249.460938 168.746094 C 249.015625 169.960938 248.34375 171.050781 247.378906 171.976562 C 244.820312 174.429688 240.996094 174.773438 237.839844 172.851562 C 234.695312 170.933594 232.902344 166.988281 233.640625 163.59375 C 233.898438 162.425781 234.445312 161.394531 235.472656 160.628906 C 236.691406 159.71875 238.046875 159.550781 239.484375 160.109375 C 241.394531 160.851562 242.523438 162.703125 242.25 164.582031 C 242.152344 165.257812 241.851562 165.839844 241.261719 166.269531 C 240.523438 166.808594 239.492188 166.820312 238.824219 166.3125 C 238.445312 166.019531 238.28125 165.601562 238.425781 165.234375 C 238.589844 164.820312 238.960938 164.695312 239.402344 164.679688 C 239.90625 164.664062 240.371094 164.738281 240.6875 165.171875 " fill-opacity="1" fill-rule="nonzero"/></g><g fill="#0c3143" fill-opacity="1"><g transform="translate(122.780241, 225.811802)"><g><path d="M 1.109375 0 L 4.230469 0 L 4.230469 -10.378906 L 14.371094 -10.378906 L 14.371094 -13.261719 L 4.230469 -13.261719 L 4.230469 -20.550781 L 17.761719 -20.550781 L 17.761719 -23.429688 L 1.109375 -23.429688 Z M 1.109375 0 "/></g></g></g><g fill="#0c3143" fill-opacity="1"><g transform="translate(139.520202, 225.811802)"><g><path d="M 3 0 L 6.121094 0 L 6.121094 -9.03125 L 10.5 -9.03125 L 16.140625 0 L 19.679688 0 L 13.621094 -9.78125 C 16.109375 -10.890625 17.640625 -13.199219 17.640625 -16.050781 C 17.640625 -20.761719 14.128906 -23.429688 9.960938 -23.429688 L 3 -23.429688 Z M 6.121094 -11.910156 L 6.121094 -20.550781 L 9.960938 -20.550781 C 12.691406 -20.550781 14.640625 -18.691406 14.640625 -16.050781 C 14.640625 -13.621094 12.691406 -11.910156 9.960938 -11.910156 Z M 6.121094 -11.910156 "/></g></g></g><g fill="#0c3143" fill-opacity="1"><g transform="translate(156.470174, 225.811802)"><g><path d="M 3 0 C 3 0 3.511719 0 4.558594 0 C 5.609375 0 6.121094 0 6.121094 0 L 6.121094 -23.429688 C 6.121094 -23.429688 5.609375 -23.429688 4.558594 -23.429688 C 3.511719 -23.429688 3 -23.429688 3 -23.429688 Z M 3 0 "/></g></g></g><g fill="#0c3143" fill-opacity="1"><g transform="translate(163.58015, 225.811802)"><g><path d="M 3 0 L 19.648438 0 L 19.648438 -2.878906 L 6.121094 -2.878906 L 6.121094 -10.378906 L 16.261719 -10.378906 L 16.261719 -13.261719 L 6.121094 -13.261719 L 6.121094 -20.550781 L 19.648438 -20.550781 L 19.648438 -23.429688 L 3 -23.429688 Z M 3 0 "/></g></g></g><g fill="#0c3143" fill-opacity="1"><g transform="translate(182.570111, 225.811802)"><g><path d="M 26.460938 -23.429688 C 26.460938 -23.429688 25.46875 -23.429688 23.519531 -23.429688 L 14.851562 -5.640625 L 5.941406 -23.429688 C 3.988281 -23.429688 3 -23.429688 3 -23.429688 L 3 0 C 3 0 3.511719 0 4.558594 0 C 5.609375 0 6.121094 0 6.121094 0 L 6.121094 -16.199219 L 13.289062 -0.898438 L 16.078125 -0.898438 L 23.339844 -16.46875 L 23.339844 0 C 23.339844 0 23.851562 0 24.898438 0 C 25.949219 0 26.460938 0 26.460938 0 Z M 26.460938 -23.429688 "/></g></g></g><g fill="#0c3143" fill-opacity="1"><g transform="translate(210.020068, 225.811802)"><g><path d="M 3 0 C 3 0 3.511719 0 4.558594 0 C 5.609375 0 6.121094 0 6.121094 0 L 6.121094 -8.789062 L 8.28125 -10.949219 L 15.871094 0 L 19.140625 0 L 10.441406 -13.109375 L 19.949219 -23.429688 L 16.050781 -23.429688 L 6.121094 -12.871094 L 6.121094 -23.429688 C 6.121094 -23.429688 5.609375 -23.429688 4.558594 -23.429688 C 3.511719 -23.429688 3 -23.429688 3 -23.429688 Z M 3 0 "/></g></g></g><g fill="#0c3143" fill-opacity="1"><g transform="translate(228.020033, 225.811802)"><g><path d="M 2.96875 -27 C 1.859375 -27 0.898438 -26.070312 0.898438 -24.898438 C 0.898438 -23.878906 1.738281 -22.949219 2.730469 -22.828125 C 2.609375 -22.171875 2.398438 -21.511719 2.011719 -20.761719 L 3.480469 -20.28125 C 4.46875 -21.511719 5.039062 -23.308594 5.039062 -24.898438 C 5.039062 -26.070312 4.078125 -27 2.96875 -27 Z M 2.96875 -27 "/></g></g></g><g fill="#0c3143" fill-opacity="1"><g transform="translate(231.56001, 225.811802)"><g><path d="M 10.441406 0.300781 C 15.238281 0.300781 18.871094 -2.28125 18.871094 -6.480469 C 18.871094 -10.441406 16.109375 -12.960938 11.308594 -13.441406 C 6.988281 -13.890625 5.550781 -15.359375 5.550781 -17.429688 C 5.550781 -19.679688 7.621094 -20.878906 10.648438 -20.878906 C 13.140625 -20.878906 14.671875 -19.921875 15.75 -18.121094 L 18.210938 -19.648438 C 16.558594 -22.261719 14.308594 -23.699219 10.859375 -23.699219 C 6.089844 -23.699219 2.488281 -21.421875 2.488281 -17.519531 C 2.488281 -13.890625 5.519531 -11.28125 10.46875 -10.800781 C 14.070312 -10.441406 15.808594 -8.671875 15.808594 -6.390625 C 15.808594 -3.988281 13.441406 -2.519531 10.441406 -2.519531 C 7.890625 -2.519531 5.519531 -3.75 4.800781 -5.308594 L 1.859375 -4.46875 C 3.058594 -1.621094 6.570312 0.300781 10.441406 0.300781 Z M 10.441406 0.300781 "/></g></g></g></svg>